<mxfile host="Electron" agent="Mozilla/5.0 (Windows NT 10.0; Win64; x64) AppleWebKit/537.36 (KHTML, like Gecko) draw.io/28.1.2 Chrome/138.0.7204.243 Electron/37.4.0 Safari/537.36" version="28.1.2">
  <diagram name="Page-1" id="wK8RtzLL9SJ3R5ARjWUS">
    <mxGraphModel dx="4290" dy="3055" grid="1" gridSize="10" guides="1" tooltips="1" connect="1" arrows="1" fold="1" page="1" pageScale="1" pageWidth="850" pageHeight="1100" math="0" shadow="0">
      <root>
        <mxCell id="0" />
        <mxCell id="1" parent="0" />
        <mxCell id="VeMJpktW_zQZ9WVwpv5x-77" value="" style="rounded=0;whiteSpace=wrap;html=1;strokeWidth=3;fontSize=20;container=0;fontStyle=1" parent="1" vertex="1">
          <mxGeometry x="1670" y="280" width="173" height="192" as="geometry" />
        </mxCell>
        <mxCell id="VeMJpktW_zQZ9WVwpv5x-78" value="D" style="text;html=1;align=center;verticalAlign=middle;resizable=0;points=[];autosize=1;strokeColor=none;fillColor=none;strokeWidth=3;fontSize=20;container=0;fontStyle=1" parent="1" vertex="1">
          <mxGeometry x="1675" y="296" width="40" height="40" as="geometry" />
        </mxCell>
        <mxCell id="VeMJpktW_zQZ9WVwpv5x-79" value="CLK" style="text;html=1;align=center;verticalAlign=middle;resizable=0;points=[];autosize=1;strokeColor=none;fillColor=none;strokeWidth=3;fontSize=20;container=0;fontStyle=1" parent="1" vertex="1">
          <mxGeometry x="1684" y="412" width="60" height="40" as="geometry" />
        </mxCell>
        <mxCell id="VeMJpktW_zQZ9WVwpv5x-80" value="Q" style="text;html=1;align=center;verticalAlign=middle;resizable=0;points=[];autosize=1;strokeColor=none;fillColor=none;strokeWidth=3;fontSize=20;container=0;fontStyle=1" parent="1" vertex="1">
          <mxGeometry x="1798" y="296" width="40" height="40" as="geometry" />
        </mxCell>
        <mxCell id="VeMJpktW_zQZ9WVwpv5x-81" value="" style="triangle;whiteSpace=wrap;html=1;strokeWidth=3;fillColor=#33001A;strokeColor=#33001A;fontColor=#ffffff;" parent="1" vertex="1">
          <mxGeometry x="1670" y="421" width="19" height="22" as="geometry" />
        </mxCell>
        <mxCell id="VeMJpktW_zQZ9WVwpv5x-82" value="" style="ellipse;whiteSpace=wrap;html=1;aspect=fixed;strokeWidth=3;" parent="1" vertex="1">
          <mxGeometry x="1658" y="426.5" width="11" height="11" as="geometry" />
        </mxCell>
        <mxCell id="VeMJpktW_zQZ9WVwpv5x-83" value="" style="rounded=0;whiteSpace=wrap;html=1;strokeWidth=3;fontSize=20;container=0;fontStyle=1" parent="1" vertex="1">
          <mxGeometry x="2070" y="280" width="173" height="192" as="geometry" />
        </mxCell>
        <mxCell id="VeMJpktW_zQZ9WVwpv5x-84" value="D" style="text;html=1;align=center;verticalAlign=middle;resizable=0;points=[];autosize=1;strokeColor=none;fillColor=none;strokeWidth=3;fontSize=20;container=0;fontStyle=1" parent="1" vertex="1">
          <mxGeometry x="2075" y="296" width="40" height="40" as="geometry" />
        </mxCell>
        <mxCell id="VeMJpktW_zQZ9WVwpv5x-85" value="CLK" style="text;html=1;align=center;verticalAlign=middle;resizable=0;points=[];autosize=1;strokeColor=none;fillColor=none;strokeWidth=3;fontSize=20;container=0;fontStyle=1" parent="1" vertex="1">
          <mxGeometry x="2072" y="412" width="60" height="40" as="geometry" />
        </mxCell>
        <mxCell id="VeMJpktW_zQZ9WVwpv5x-86" value="Q" style="text;html=1;align=center;verticalAlign=middle;resizable=0;points=[];autosize=1;strokeColor=none;fillColor=none;strokeWidth=3;fontSize=20;container=0;fontStyle=1" parent="1" vertex="1">
          <mxGeometry x="2198" y="296" width="40" height="40" as="geometry" />
        </mxCell>
        <mxCell id="VeMJpktW_zQZ9WVwpv5x-88" value="" style="ellipse;whiteSpace=wrap;html=1;aspect=fixed;strokeWidth=3;" parent="1" vertex="1">
          <mxGeometry x="2058" y="426.5" width="11" height="11" as="geometry" />
        </mxCell>
        <mxCell id="VeMJpktW_zQZ9WVwpv5x-89" style="rounded=0;orthogonalLoop=1;jettySize=auto;html=1;exitX=1;exitY=0.5;exitDx=0;exitDy=0;endArrow=none;endFill=0;strokeWidth=3;entryX=0;entryY=0.5;entryDx=0;entryDy=0;" parent="1" target="VeMJpktW_zQZ9WVwpv5x-82" edge="1">
          <mxGeometry relative="1" as="geometry">
            <mxPoint x="1656" y="432" as="targetPoint" />
            <mxPoint x="1507.0000000000005" y="432.5000000000002" as="sourcePoint" />
          </mxGeometry>
        </mxCell>
        <mxCell id="VeMJpktW_zQZ9WVwpv5x-91" style="rounded=0;orthogonalLoop=1;jettySize=auto;html=1;exitX=1;exitY=0.5;exitDx=0;exitDy=0;endArrow=none;endFill=0;strokeWidth=3;entryX=0.005;entryY=0.17;entryDx=0;entryDy=0;entryPerimeter=0;" parent="1" source="VeMJpktW_zQZ9WVwpv5x-92" target="VeMJpktW_zQZ9WVwpv5x-77" edge="1">
          <mxGeometry relative="1" as="geometry">
            <mxPoint x="1668" y="312.6896551724137" as="targetPoint" />
          </mxGeometry>
        </mxCell>
        <mxCell id="VeMJpktW_zQZ9WVwpv5x-92" value="d" style="rounded=0;whiteSpace=wrap;html=1;strokeColor=none;fontSize=20;" parent="1" vertex="1">
          <mxGeometry x="1438" y="295" width="67" height="35" as="geometry" />
        </mxCell>
        <mxCell id="VeMJpktW_zQZ9WVwpv5x-93" style="rounded=0;orthogonalLoop=1;jettySize=auto;html=1;endArrow=none;endFill=0;strokeWidth=3;" parent="1" edge="1">
          <mxGeometry relative="1" as="geometry">
            <mxPoint x="1843" y="316" as="sourcePoint" />
            <mxPoint x="2070" y="316" as="targetPoint" />
          </mxGeometry>
        </mxCell>
        <mxCell id="VeMJpktW_zQZ9WVwpv5x-94" value="" style="edgeStyle=orthogonalEdgeStyle;rounded=0;orthogonalLoop=1;jettySize=auto;html=1;strokeWidth=3;endArrow=none;endFill=0;" parent="1" source="VeMJpktW_zQZ9WVwpv5x-95" edge="1">
          <mxGeometry relative="1" as="geometry">
            <mxPoint x="2244" y="316" as="targetPoint" />
          </mxGeometry>
        </mxCell>
        <mxCell id="VeMJpktW_zQZ9WVwpv5x-95" value="q" style="rounded=0;whiteSpace=wrap;html=1;strokeColor=none;fontSize=20;" parent="1" vertex="1">
          <mxGeometry x="2383" y="298.5" width="67" height="35" as="geometry" />
        </mxCell>
        <mxCell id="VeMJpktW_zQZ9WVwpv5x-96" value="" style="rounded=0;whiteSpace=wrap;html=1;strokeWidth=3;fontSize=20;container=0;fontStyle=1" parent="1" vertex="1">
          <mxGeometry x="1670" y="671" width="173" height="192" as="geometry" />
        </mxCell>
        <mxCell id="VeMJpktW_zQZ9WVwpv5x-97" value="D" style="text;html=1;align=center;verticalAlign=middle;resizable=0;points=[];autosize=1;strokeColor=none;fillColor=none;strokeWidth=3;fontSize=20;container=0;fontStyle=1" parent="1" vertex="1">
          <mxGeometry x="1675" y="687" width="40" height="40" as="geometry" />
        </mxCell>
        <mxCell id="VeMJpktW_zQZ9WVwpv5x-98" value="CLK" style="text;html=1;align=center;verticalAlign=middle;resizable=0;points=[];autosize=1;strokeColor=none;fillColor=none;strokeWidth=3;fontSize=20;container=0;fontStyle=1" parent="1" vertex="1">
          <mxGeometry x="1684" y="803" width="60" height="40" as="geometry" />
        </mxCell>
        <mxCell id="VeMJpktW_zQZ9WVwpv5x-99" value="Q" style="text;html=1;align=center;verticalAlign=middle;resizable=0;points=[];autosize=1;strokeColor=none;fillColor=none;strokeWidth=3;fontSize=20;container=0;fontStyle=1" parent="1" vertex="1">
          <mxGeometry x="1798" y="687" width="40" height="40" as="geometry" />
        </mxCell>
        <mxCell id="VeMJpktW_zQZ9WVwpv5x-100" value="" style="triangle;whiteSpace=wrap;html=1;strokeWidth=3;fillColor=#33001A;strokeColor=#33001A;fontColor=#ffffff;" parent="1" vertex="1">
          <mxGeometry x="1670" y="812" width="19" height="22" as="geometry" />
        </mxCell>
        <mxCell id="VeMJpktW_zQZ9WVwpv5x-101" value="" style="ellipse;whiteSpace=wrap;html=1;aspect=fixed;strokeWidth=3;" parent="1" vertex="1">
          <mxGeometry x="1658" y="817.5" width="11" height="11" as="geometry" />
        </mxCell>
        <mxCell id="VeMJpktW_zQZ9WVwpv5x-103" style="rounded=0;orthogonalLoop=1;jettySize=auto;html=1;exitX=1;exitY=0.5;exitDx=0;exitDy=0;endArrow=none;endFill=0;strokeWidth=3;entryX=0;entryY=0.5;entryDx=0;entryDy=0;" parent="1" target="VeMJpktW_zQZ9WVwpv5x-101" edge="1">
          <mxGeometry relative="1" as="geometry">
            <mxPoint x="1656" y="823" as="targetPoint" />
            <mxPoint x="1507.0000000000005" y="823.5" as="sourcePoint" />
          </mxGeometry>
        </mxCell>
        <mxCell id="VeMJpktW_zQZ9WVwpv5x-105" style="rounded=0;orthogonalLoop=1;jettySize=auto;html=1;exitX=1;exitY=0.5;exitDx=0;exitDy=0;endArrow=none;endFill=0;strokeWidth=3;entryX=0.005;entryY=0.17;entryDx=0;entryDy=0;entryPerimeter=0;" parent="1" source="VeMJpktW_zQZ9WVwpv5x-106" target="VeMJpktW_zQZ9WVwpv5x-96" edge="1">
          <mxGeometry relative="1" as="geometry">
            <mxPoint x="1668" y="703.6896551724137" as="targetPoint" />
          </mxGeometry>
        </mxCell>
        <mxCell id="VeMJpktW_zQZ9WVwpv5x-106" value="d" style="rounded=0;whiteSpace=wrap;html=1;strokeColor=none;fontSize=20;" parent="1" vertex="1">
          <mxGeometry x="1438" y="686" width="67" height="35" as="geometry" />
        </mxCell>
        <mxCell id="VeMJpktW_zQZ9WVwpv5x-107" style="rounded=0;orthogonalLoop=1;jettySize=auto;html=1;endArrow=none;endFill=0;strokeWidth=3;" parent="1" edge="1">
          <mxGeometry relative="1" as="geometry">
            <mxPoint x="1843" y="707" as="sourcePoint" />
            <mxPoint x="2070" y="707" as="targetPoint" />
          </mxGeometry>
        </mxCell>
        <mxCell id="VeMJpktW_zQZ9WVwpv5x-108" value="" style="edgeStyle=orthogonalEdgeStyle;rounded=0;orthogonalLoop=1;jettySize=auto;html=1;strokeWidth=3;endArrow=none;endFill=0;" parent="1" source="VeMJpktW_zQZ9WVwpv5x-109" edge="1">
          <mxGeometry relative="1" as="geometry">
            <mxPoint x="2244" y="707" as="targetPoint" />
          </mxGeometry>
        </mxCell>
        <mxCell id="VeMJpktW_zQZ9WVwpv5x-109" value="q" style="rounded=0;whiteSpace=wrap;html=1;strokeColor=none;fontSize=20;" parent="1" vertex="1">
          <mxGeometry x="2383" y="689.5" width="67" height="35" as="geometry" />
        </mxCell>
        <mxCell id="VeMJpktW_zQZ9WVwpv5x-110" value="" style="rounded=0;whiteSpace=wrap;html=1;strokeWidth=3;fontSize=20;container=0;fontStyle=1" parent="1" vertex="1">
          <mxGeometry x="2072" y="670" width="173" height="192" as="geometry" />
        </mxCell>
        <mxCell id="VeMJpktW_zQZ9WVwpv5x-111" value="D" style="text;html=1;align=center;verticalAlign=middle;resizable=0;points=[];autosize=1;strokeColor=none;fillColor=none;strokeWidth=3;fontSize=20;container=0;fontStyle=1" parent="1" vertex="1">
          <mxGeometry x="2081" y="688" width="33" height="37" as="geometry" />
        </mxCell>
        <mxCell id="VeMJpktW_zQZ9WVwpv5x-112" value="CLK" style="text;html=1;align=center;verticalAlign=middle;resizable=0;points=[];autosize=1;strokeColor=none;fillColor=none;strokeWidth=3;fontSize=20;container=0;fontStyle=1" parent="1" vertex="1">
          <mxGeometry x="2073" y="804" width="58" height="37" as="geometry" />
        </mxCell>
        <mxCell id="VeMJpktW_zQZ9WVwpv5x-113" value="Q" style="text;html=1;align=center;verticalAlign=middle;resizable=0;points=[];autosize=1;strokeColor=none;fillColor=none;strokeWidth=3;fontSize=20;container=0;fontStyle=1" parent="1" vertex="1">
          <mxGeometry x="2203" y="688" width="35" height="37" as="geometry" />
        </mxCell>
        <mxCell id="VeMJpktW_zQZ9WVwpv5x-114" value="" style="rounded=0;whiteSpace=wrap;html=1;strokeWidth=3;fontSize=20;container=0;fontStyle=1" parent="1" vertex="1">
          <mxGeometry x="2070" y="1071" width="173" height="192" as="geometry" />
        </mxCell>
        <mxCell id="VeMJpktW_zQZ9WVwpv5x-115" value="D" style="text;html=1;align=center;verticalAlign=middle;resizable=0;points=[];autosize=1;strokeColor=none;fillColor=none;strokeWidth=3;fontSize=20;container=0;fontStyle=1" parent="1" vertex="1">
          <mxGeometry x="2075" y="1087" width="40" height="40" as="geometry" />
        </mxCell>
        <mxCell id="VeMJpktW_zQZ9WVwpv5x-116" value="CLK" style="text;html=1;align=center;verticalAlign=middle;resizable=0;points=[];autosize=1;strokeColor=none;fillColor=none;strokeWidth=3;fontSize=20;container=0;fontStyle=1" parent="1" vertex="1">
          <mxGeometry x="2068" y="1203" width="60" height="40" as="geometry" />
        </mxCell>
        <mxCell id="VeMJpktW_zQZ9WVwpv5x-117" value="Q" style="text;html=1;align=center;verticalAlign=middle;resizable=0;points=[];autosize=1;strokeColor=none;fillColor=none;strokeWidth=3;fontSize=20;container=0;fontStyle=1" parent="1" vertex="1">
          <mxGeometry x="2198" y="1087" width="40" height="40" as="geometry" />
        </mxCell>
        <mxCell id="VeMJpktW_zQZ9WVwpv5x-119" value="" style="ellipse;whiteSpace=wrap;html=1;aspect=fixed;strokeWidth=3;" parent="1" vertex="1">
          <mxGeometry x="2058" y="1217.5" width="11" height="11" as="geometry" />
        </mxCell>
        <mxCell id="VeMJpktW_zQZ9WVwpv5x-120" style="rounded=0;orthogonalLoop=1;jettySize=auto;html=1;exitX=1;exitY=0.5;exitDx=0;exitDy=0;endArrow=none;endFill=0;strokeWidth=3;entryX=0;entryY=0.5;entryDx=0;entryDy=0;" parent="1" edge="1">
          <mxGeometry relative="1" as="geometry">
            <mxPoint x="1658" y="1223" as="targetPoint" />
            <mxPoint x="1507.0000000000005" y="1223.5" as="sourcePoint" />
          </mxGeometry>
        </mxCell>
        <mxCell id="VeMJpktW_zQZ9WVwpv5x-122" style="rounded=0;orthogonalLoop=1;jettySize=auto;html=1;exitX=1;exitY=0.5;exitDx=0;exitDy=0;endArrow=none;endFill=0;strokeWidth=3;entryX=0.005;entryY=0.17;entryDx=0;entryDy=0;entryPerimeter=0;" parent="1" source="VeMJpktW_zQZ9WVwpv5x-123" edge="1">
          <mxGeometry relative="1" as="geometry">
            <mxPoint x="1670.8649999999998" y="1103.64" as="targetPoint" />
          </mxGeometry>
        </mxCell>
        <mxCell id="VeMJpktW_zQZ9WVwpv5x-123" value="d" style="rounded=0;whiteSpace=wrap;html=1;strokeColor=none;fontSize=20;" parent="1" vertex="1">
          <mxGeometry x="1438" y="1086" width="67" height="35" as="geometry" />
        </mxCell>
        <mxCell id="VeMJpktW_zQZ9WVwpv5x-124" style="rounded=0;orthogonalLoop=1;jettySize=auto;html=1;endArrow=none;endFill=0;strokeWidth=3;" parent="1" edge="1">
          <mxGeometry relative="1" as="geometry">
            <mxPoint x="1833" y="1107" as="sourcePoint" />
            <mxPoint x="2070" y="1107" as="targetPoint" />
          </mxGeometry>
        </mxCell>
        <mxCell id="VeMJpktW_zQZ9WVwpv5x-125" value="" style="edgeStyle=orthogonalEdgeStyle;rounded=0;orthogonalLoop=1;jettySize=auto;html=1;strokeWidth=3;endArrow=none;endFill=0;" parent="1" source="VeMJpktW_zQZ9WVwpv5x-126" edge="1">
          <mxGeometry relative="1" as="geometry">
            <mxPoint x="2244" y="1107" as="targetPoint" />
          </mxGeometry>
        </mxCell>
        <mxCell id="VeMJpktW_zQZ9WVwpv5x-126" value="q" style="rounded=0;whiteSpace=wrap;html=1;strokeColor=none;fontSize=20;" parent="1" vertex="1">
          <mxGeometry x="2383" y="1089.5" width="67" height="35" as="geometry" />
        </mxCell>
        <mxCell id="VeMJpktW_zQZ9WVwpv5x-127" value="" style="rounded=0;whiteSpace=wrap;html=1;strokeWidth=3;fontSize=20;container=0;fontStyle=1" parent="1" vertex="1">
          <mxGeometry x="1659" y="1070" width="173" height="192" as="geometry" />
        </mxCell>
        <mxCell id="VeMJpktW_zQZ9WVwpv5x-128" value="D" style="text;html=1;align=center;verticalAlign=middle;resizable=0;points=[];autosize=1;strokeColor=none;fillColor=none;strokeWidth=3;fontSize=20;container=0;fontStyle=1" parent="1" vertex="1">
          <mxGeometry x="1668" y="1088" width="33" height="37" as="geometry" />
        </mxCell>
        <mxCell id="VeMJpktW_zQZ9WVwpv5x-129" value="CLK" style="text;html=1;align=center;verticalAlign=middle;resizable=0;points=[];autosize=1;strokeColor=none;fillColor=none;strokeWidth=3;fontSize=20;container=0;fontStyle=1" parent="1" vertex="1">
          <mxGeometry x="1674" y="1204" width="58" height="37" as="geometry" />
        </mxCell>
        <mxCell id="VeMJpktW_zQZ9WVwpv5x-130" value="Q" style="text;html=1;align=center;verticalAlign=middle;resizable=0;points=[];autosize=1;strokeColor=none;fillColor=none;strokeWidth=3;fontSize=20;container=0;fontStyle=1" parent="1" vertex="1">
          <mxGeometry x="1790" y="1088" width="35" height="37" as="geometry" />
        </mxCell>
        <mxCell id="VeMJpktW_zQZ9WVwpv5x-131" value="" style="triangle;whiteSpace=wrap;html=1;strokeWidth=3;fillColor=#33001A;strokeColor=#33001A;fontColor=#ffffff;" parent="1" vertex="1">
          <mxGeometry x="1659" y="1211" width="19" height="22" as="geometry" />
        </mxCell>
        <mxCell id="VeMJpktW_zQZ9WVwpv5x-133" style="rounded=0;orthogonalLoop=1;jettySize=auto;html=1;exitX=1;exitY=0.5;exitDx=0;exitDy=0;endArrow=none;endFill=0;strokeWidth=3;entryX=0;entryY=0.5;entryDx=0;entryDy=0;" parent="1" edge="1">
          <mxGeometry relative="1" as="geometry">
            <mxPoint x="1658" y="1663" as="targetPoint" />
            <mxPoint x="1507.0000000000005" y="1663.5" as="sourcePoint" />
          </mxGeometry>
        </mxCell>
        <mxCell id="VeMJpktW_zQZ9WVwpv5x-135" style="rounded=0;orthogonalLoop=1;jettySize=auto;html=1;exitX=1;exitY=0.5;exitDx=0;exitDy=0;endArrow=none;endFill=0;strokeWidth=3;entryX=0.005;entryY=0.17;entryDx=0;entryDy=0;entryPerimeter=0;" parent="1" source="VeMJpktW_zQZ9WVwpv5x-136" edge="1">
          <mxGeometry relative="1" as="geometry">
            <mxPoint x="1670.8649999999998" y="1543.6400000000003" as="targetPoint" />
          </mxGeometry>
        </mxCell>
        <mxCell id="VeMJpktW_zQZ9WVwpv5x-136" value="d" style="rounded=0;whiteSpace=wrap;html=1;strokeColor=none;fontSize=20;" parent="1" vertex="1">
          <mxGeometry x="1438" y="1526" width="67" height="35" as="geometry" />
        </mxCell>
        <mxCell id="VeMJpktW_zQZ9WVwpv5x-137" style="rounded=0;orthogonalLoop=1;jettySize=auto;html=1;endArrow=none;endFill=0;strokeWidth=3;" parent="1" edge="1">
          <mxGeometry relative="1" as="geometry">
            <mxPoint x="1833" y="1547" as="sourcePoint" />
            <mxPoint x="2070" y="1547" as="targetPoint" />
          </mxGeometry>
        </mxCell>
        <mxCell id="VeMJpktW_zQZ9WVwpv5x-138" value="" style="rounded=0;orthogonalLoop=1;jettySize=auto;html=1;strokeWidth=3;endArrow=none;endFill=0;" parent="1" source="VeMJpktW_zQZ9WVwpv5x-139" edge="1">
          <mxGeometry relative="1" as="geometry">
            <mxPoint x="2242" y="1546" as="targetPoint" />
          </mxGeometry>
        </mxCell>
        <mxCell id="VeMJpktW_zQZ9WVwpv5x-139" value="q" style="rounded=0;whiteSpace=wrap;html=1;strokeColor=none;fontSize=20;" parent="1" vertex="1">
          <mxGeometry x="2383" y="1529.5" width="67" height="35" as="geometry" />
        </mxCell>
        <mxCell id="VeMJpktW_zQZ9WVwpv5x-140" value="" style="rounded=0;whiteSpace=wrap;html=1;strokeWidth=3;fontSize=20;container=0;fontStyle=1" parent="1" vertex="1">
          <mxGeometry x="1659" y="1510" width="173" height="192" as="geometry" />
        </mxCell>
        <mxCell id="VeMJpktW_zQZ9WVwpv5x-141" value="D" style="text;html=1;align=center;verticalAlign=middle;resizable=0;points=[];autosize=1;strokeColor=none;fillColor=none;strokeWidth=3;fontSize=20;container=0;fontStyle=1" parent="1" vertex="1">
          <mxGeometry x="1668" y="1528" width="33" height="37" as="geometry" />
        </mxCell>
        <mxCell id="VeMJpktW_zQZ9WVwpv5x-142" value="CLK" style="text;html=1;align=center;verticalAlign=middle;resizable=0;points=[];autosize=1;strokeColor=none;fillColor=none;strokeWidth=3;fontSize=20;container=0;fontStyle=1" parent="1" vertex="1">
          <mxGeometry x="1674" y="1644" width="58" height="37" as="geometry" />
        </mxCell>
        <mxCell id="VeMJpktW_zQZ9WVwpv5x-143" value="Q" style="text;html=1;align=center;verticalAlign=middle;resizable=0;points=[];autosize=1;strokeColor=none;fillColor=none;strokeWidth=3;fontSize=20;container=0;fontStyle=1" parent="1" vertex="1">
          <mxGeometry x="1790" y="1528" width="35" height="37" as="geometry" />
        </mxCell>
        <mxCell id="VeMJpktW_zQZ9WVwpv5x-144" value="" style="triangle;whiteSpace=wrap;html=1;strokeWidth=3;fillColor=#33001A;strokeColor=#33001A;fontColor=#ffffff;" parent="1" vertex="1">
          <mxGeometry x="1659" y="1651" width="19" height="22" as="geometry" />
        </mxCell>
        <mxCell id="VeMJpktW_zQZ9WVwpv5x-145" value="" style="rounded=0;whiteSpace=wrap;html=1;strokeWidth=3;fontSize=20;container=0;fontStyle=1" parent="1" vertex="1">
          <mxGeometry x="2069" y="1513" width="173" height="192" as="geometry" />
        </mxCell>
        <mxCell id="VeMJpktW_zQZ9WVwpv5x-146" value="D" style="text;html=1;align=center;verticalAlign=middle;resizable=0;points=[];autosize=1;strokeColor=none;fillColor=none;strokeWidth=3;fontSize=20;container=0;fontStyle=1" parent="1" vertex="1">
          <mxGeometry x="2078" y="1531" width="33" height="37" as="geometry" />
        </mxCell>
        <mxCell id="VeMJpktW_zQZ9WVwpv5x-147" value="CLK" style="text;html=1;align=center;verticalAlign=middle;resizable=0;points=[];autosize=1;strokeColor=none;fillColor=none;strokeWidth=3;fontSize=20;container=0;fontStyle=1" parent="1" vertex="1">
          <mxGeometry x="2070" y="1645" width="58" height="37" as="geometry" />
        </mxCell>
        <mxCell id="VeMJpktW_zQZ9WVwpv5x-148" value="Q" style="text;html=1;align=center;verticalAlign=middle;resizable=0;points=[];autosize=1;strokeColor=none;fillColor=none;strokeWidth=3;fontSize=20;container=0;fontStyle=1" parent="1" vertex="1">
          <mxGeometry x="2200" y="1531" width="35" height="37" as="geometry" />
        </mxCell>
        <mxCell id="VeMJpktW_zQZ9WVwpv5x-149" value="clk 1" style="rounded=0;whiteSpace=wrap;html=1;strokeColor=none;fontSize=20;" parent="1" vertex="1">
          <mxGeometry x="1438" y="412" width="67" height="35" as="geometry" />
        </mxCell>
        <mxCell id="VeMJpktW_zQZ9WVwpv5x-157" style="edgeStyle=orthogonalEdgeStyle;rounded=0;orthogonalLoop=1;jettySize=auto;html=1;entryX=0;entryY=0.5;entryDx=0;entryDy=0;endArrow=none;endFill=0;strokeWidth=3;" parent="1" source="VeMJpktW_zQZ9WVwpv5x-150" target="VeMJpktW_zQZ9WVwpv5x-88" edge="1">
          <mxGeometry relative="1" as="geometry">
            <Array as="points">
              <mxPoint x="1968" y="549" />
              <mxPoint x="1968" y="432" />
            </Array>
          </mxGeometry>
        </mxCell>
        <mxCell id="VeMJpktW_zQZ9WVwpv5x-150" value="clk 2" style="rounded=0;whiteSpace=wrap;html=1;strokeColor=none;fontSize=20;" parent="1" vertex="1">
          <mxGeometry x="1436" y="532" width="67" height="35" as="geometry" />
        </mxCell>
        <mxCell id="VeMJpktW_zQZ9WVwpv5x-151" value="clk 1" style="rounded=0;whiteSpace=wrap;html=1;strokeColor=none;fontSize=20;" parent="1" vertex="1">
          <mxGeometry x="1436" y="804" width="67" height="35" as="geometry" />
        </mxCell>
        <mxCell id="VeMJpktW_zQZ9WVwpv5x-152" value="clk 2" style="rounded=0;whiteSpace=wrap;html=1;strokeColor=none;fontSize=20;" parent="1" vertex="1">
          <mxGeometry x="1434" y="924" width="67" height="35" as="geometry" />
        </mxCell>
        <mxCell id="VeMJpktW_zQZ9WVwpv5x-153" value="clk 1" style="rounded=0;whiteSpace=wrap;html=1;strokeColor=none;fontSize=20;" parent="1" vertex="1">
          <mxGeometry x="1439" y="1204" width="67" height="35" as="geometry" />
        </mxCell>
        <mxCell id="VeMJpktW_zQZ9WVwpv5x-159" style="edgeStyle=orthogonalEdgeStyle;rounded=0;orthogonalLoop=1;jettySize=auto;html=1;entryX=0;entryY=0.5;entryDx=0;entryDy=0;endArrow=none;endFill=0;strokeWidth=3;" parent="1" source="VeMJpktW_zQZ9WVwpv5x-154" target="VeMJpktW_zQZ9WVwpv5x-119" edge="1">
          <mxGeometry relative="1" as="geometry">
            <Array as="points">
              <mxPoint x="1968" y="1342" />
              <mxPoint x="1968" y="1223" />
            </Array>
          </mxGeometry>
        </mxCell>
        <mxCell id="VeMJpktW_zQZ9WVwpv5x-154" value="clk 2" style="rounded=0;whiteSpace=wrap;html=1;strokeColor=none;fontSize=20;" parent="1" vertex="1">
          <mxGeometry x="1437" y="1324" width="67" height="35" as="geometry" />
        </mxCell>
        <mxCell id="VeMJpktW_zQZ9WVwpv5x-155" value="clk 1" style="rounded=0;whiteSpace=wrap;html=1;strokeColor=none;fontSize=20;" parent="1" vertex="1">
          <mxGeometry x="1438" y="1645" width="67" height="35" as="geometry" />
        </mxCell>
        <mxCell id="VeMJpktW_zQZ9WVwpv5x-156" value="clk 2" style="rounded=0;whiteSpace=wrap;html=1;strokeColor=none;fontSize=20;" parent="1" vertex="1">
          <mxGeometry x="1436" y="1765" width="67" height="35" as="geometry" />
        </mxCell>
        <mxCell id="VeMJpktW_zQZ9WVwpv5x-158" style="edgeStyle=orthogonalEdgeStyle;rounded=0;orthogonalLoop=1;jettySize=auto;html=1;entryX=0.011;entryY=0.474;entryDx=0;entryDy=0;entryPerimeter=0;endArrow=none;endFill=0;strokeWidth=3;" parent="1" source="VeMJpktW_zQZ9WVwpv5x-152" target="VeMJpktW_zQZ9WVwpv5x-112" edge="1">
          <mxGeometry relative="1" as="geometry">
            <Array as="points">
              <mxPoint x="2008" y="942" />
              <mxPoint x="2008" y="822" />
            </Array>
          </mxGeometry>
        </mxCell>
        <mxCell id="VeMJpktW_zQZ9WVwpv5x-160" style="edgeStyle=orthogonalEdgeStyle;rounded=0;orthogonalLoop=1;jettySize=auto;html=1;entryX=0;entryY=0.478;entryDx=0;entryDy=0;entryPerimeter=0;strokeWidth=3;endArrow=none;endFill=0;" parent="1" source="VeMJpktW_zQZ9WVwpv5x-156" target="VeMJpktW_zQZ9WVwpv5x-147" edge="1">
          <mxGeometry relative="1" as="geometry">
            <Array as="points">
              <mxPoint x="1968" y="1782" />
              <mxPoint x="1968" y="1663" />
            </Array>
          </mxGeometry>
        </mxCell>
        <mxCell id="VeMJpktW_zQZ9WVwpv5x-162" value="&lt;font style=&quot;font-size: 40px;&quot;&gt;Different Clock&lt;/font&gt;" style="text;html=1;align=center;verticalAlign=middle;resizable=0;points=[];autosize=1;strokeColor=#b85450;fillColor=#f8cecc;" parent="1" vertex="1">
          <mxGeometry x="1936" y="80" width="290" height="60" as="geometry" />
        </mxCell>
      </root>
    </mxGraphModel>
  </diagram>
</mxfile>
